<svg xmlns="http://www.w3.org/2000/svg" width="94.999" height="67" viewBox="0 0 94.999 67">
  <path id="Color_Overlay" data-name="Color Overlay" d="M1094.439,6049.948c-6.661-4.567-13.307-9.294-20.127-13.345a.229.229,0,0,1-.13.094c-.156.032-.311.037-.468.064-4.739,2.645-9.567,5.328-14.447,7.447-.12.068-.232.163-.355.224a.11.11,0,0,1-.12-.019,55.558,55.558,0,0,1-7.684,2.672,5.5,5.5,0,0,1-.478.325c-.112.068-.2-.016-.237-.138a36.926,36.926,0,0,1-4.166.77c-.027.015-.05.035-.077.05s-.068.006-.087-.029a28.646,28.646,0,0,1-7.56-.029,30.308,30.308,0,0,1-6.251-1.676l-.036.017c-.074.029-.125-.02-.158-.088a98.458,98.458,0,0,1-12.262-6.122l-1.046-.576c-.049.011-.1.029-.144.038-.073.017-.093-.076-.074-.16q-2.444-1.343-4.886-2.692l-.018,0c-.029.008-.044-.015-.056-.042q-6.721-3.708-13.443-7.413c-.24-.133-.1-.721.137-.747q12.791-1.359,25.586-2.733c7.885-.847,15.838-1.565,23.6-.316,11.31,1.821,22.037,7.367,32.3,14.138a58.736,58.736,0,0,1-5.557-10.65l-.733-.228a.033.033,0,0,0-.014,0,.035.035,0,0,1-.023-.006l0,0c-9-2.779-18.463-4.955-24.811-15.39-5.627-9.25-8.758-22.416-15.821-29.511-.319-.319-.038-1.044.319-.839,9.874,5.671,19.868,12.438,28.167,22.174a69.609,69.609,0,0,1,10.6,16.983c.879,1.977,1.725,4.005,2.583,6.011l.311.1c.257.086.234.574.065.768,1.866,4.308,3.867,8.433,6.527,11.666,3.885,2.622,7.707,5.4,11.468,8.2.36.269.112,1.06-.234,1.06A.269.269,0,0,1,1094.439,6049.948Zm-54.914-2.568a28.967,28.967,0,0,0,7.221-.065c3.52-2.87,5.542-7.861,7.5-13.044q-2.382-.45-4.781-.787C1047.328,6039.791,1043.841,6044.918,1039.525,6047.38Zm-6.265-1.489a31.653,31.653,0,0,0,4.62,1.259c.32.059.639.086.96.133,4.417-2.5,8.141-7.218,10.211-13.856q-2.444-.333-4.9-.556C1041.655,6039.23,1037.759,6043.751,1033.26,6045.891Zm14.058,1.347c1.265-.188,2.528-.453,3.793-.771,3.185-1.986,4.394-7.924,6.9-11.422-.4-.093-.792-.187-1.19-.273-.717-.161-1.441-.276-2.162-.419C1052.786,6039.3,1050.636,6044.461,1047.318,6047.238Zm4.815-1.043c1.111-.308,2.223-.67,3.333-1.064,1.388-.814,2.4-2.829,3.412-4.464q1.471-2.369,2.939-4.744-1.669-.376-3.336-.771C1056.016,6038.428,1054.789,6043.424,1052.133,6046.195Zm-14.989-13.746c-2.657,4.262-6.819,9.936-10.821,10.388a56.677,56.677,0,0,0,6.3,2.824c4.564-1.946,8.462-6.573,11.006-12.842-1.949-.167-3.9-.305-5.859-.39-.207-.009-.413-.012-.62-.02C1037.149,6032.422,1037.152,6032.436,1037.144,6032.449Zm20.723,10.559a12.247,12.247,0,0,1-1.285,1.716c.943-.358,1.884-.746,2.823-1.153,2.136-1.455,3.494-4.488,5.073-7.1q-1.123-.207-2.246-.454C1060.779,6038.348,1059.342,6040.708,1057.866,6043.008Zm2.985-.07c1.184-.542,2.364-1.124,3.541-1.72a32.743,32.743,0,0,1,2.847-4.331q-1.152-.13-2.3-.333C1063.635,6038.771,1062.422,6041.255,1060.851,6042.938Zm-31.5-10.635c-2.98,3.474-6.032,5.926-9.547,7,1.972,1.095,3.952,2.206,5.947,3.246,4.156-.677,7.988-5.5,10.894-10.159-2.408-.094-4.822-.16-7.241-.222A.364.364,0,0,1,1029.356,6032.3Zm35.29,8.787q1.38-.7,2.748-1.439c0-.007,0-.018.014-.025a8.724,8.724,0,0,0,1.678-2.6c-.484-.023-.969-.041-1.45-.091C1066.6,6038.228,1065.592,6039.637,1064.646,6041.09Zm3.548-1.876c1.348-.735,2.689-1.488,4.019-2.247a21.916,21.916,0,0,1-2.788.077A5.73,5.73,0,0,1,1068.194,6039.213Zm-53.543-2.751q2.141,1.182,4.282,2.358c.159.086.317.174.477.264a20.669,20.669,0,0,0,9.468-6.927q-3.578-.089-7.157-.214A21.691,21.691,0,0,1,1014.651,6036.462Zm-.4-.218a36.34,36.34,0,0,0,6.807-4.326,127.541,127.541,0,0,1-17.866-1.761Q1008.72,6033.194,1014.252,6036.244Zm53.832-.158a24.092,24.092,0,0,0,5.342,0c-7.722-4.508-15.678-8.1-24.163-9.552-7.98-1.359-16.1-.7-24.219.147-7.847.814-15.694,1.691-23.541,2.549.161.086.319.175.48.264,12.115,1.754,24.383,1.57,36.6,2.237a125.142,125.142,0,0,1,17.221,1.89c.953.185,1.9.4,2.848.615l.041-.049c.114-.126.21-.029.245.112,2.021.469,4.037.964,6.066,1.339.029-.041.053-.086.08-.127.141-.208.316-.027.3.192.832.149,1.669.272,2.505.363l.014-.017a.11.11,0,0,1,.083-.05C1068.026,6036,1068.061,6036.034,1068.083,6036.085Zm-12.054-32.237c3.4,4,6.742,8.114,10.062,12.262,3,3.747,6.271,7.356,8.969,11.632.229.073.456.152.683.228-.521-1.229-1.039-2.462-1.564-3.688a71.055,71.055,0,0,0-10.747-17.9c-6.362-7.554-13.624-12.7-21.02-17.544C1047.343,5992.914,1051.684,5998.729,1056.029,6003.848Zm-5.937,7.131c3.16,5.627,7.041,9.521,11.731,11.857a87.546,87.546,0,0,0,12.352,4.617c-2.745-3.055-5.254-6.7-7.87-9.969-3.018-3.773-6.069-7.486-9.131-11.177-6.029-7.265-12.162-16.113-19.644-20.03C1042.443,5993.584,1045.6,6002.984,1050.092,6010.979Zm-13.3-25.752c.068.03.135.065.2.1l-.249-.161Z" transform="translate(-1000 -5983)" fill="#fff"/>
</svg>
